<svg width="20" height="16" viewBox="0 0 20 16" fill="none" xmlns="http://www.w3.org/2000/svg">
    <path d="M13 9C13 10.6569 11.6569 12 10 12C8.34315 12 7 10.6569 7 9C7 7.34315 8.34315 6 10 6C11.6569 6 13 7.34315 13 9Z"
          fill="#3454D1"/>
    <path fill-rule="evenodd" clip-rule="evenodd"
          d="M2 3C0.895431 3 0 3.89543 0 5V14C0 15.1046 0.895431 16 2 16H18C19.1046 16 20 15.1046 20 14V5C20 3.89543 19.1046 3 18 3H15.7208C15.2903 3 14.9082 2.72457 14.7721 2.31623L14.4558 1.36754C14.1836 0.55086 13.4193 0 12.5585 0H7.44152C6.58066 0 5.81638 0.55086 5.54415 1.36754L5.22792 2.31623C5.09181 2.72457 4.70967 3 4.27924 3H2ZM15 9C15 11.7614 12.7614 14 10 14C7.23858 14 5 11.7614 5 9C5 6.23858 7.23858 4 10 4C12.7614 4 15 6.23858 15 9Z"
          fill="#3454D1"/>
</svg>
