<svg width="18" height="16" viewBox="0 0 18 16" fill="none" xmlns="http://www.w3.org/2000/svg">
<path fill-rule="evenodd" clip-rule="evenodd" d="M2 0C0.895431 0 0 0.895431 0 2V15.4992C0 15.7913 0.239513 15.9995 0.5 16C0.586088 16.0002 0.674467 15.9776 0.757248 15.928L4.52498 13.6673C4.83581 13.4808 5.19148 13.3823 5.55397 13.3823H16C17.1046 13.3823 18 12.4869 18 11.3823V2C18 0.895431 17.1046 0 16 0H2ZM4.87132 6.40595C5.07088 6.21083 5.39445 6.21083 5.59401 6.40595L6.98685 7.7343C7.18642 7.92941 7.50998 7.92941 7.70954 7.7343L12.4052 3.14711C12.6047 2.952 12.9283 2.952 13.1279 3.14711L13.8506 3.85369C13.9543 3.95509 14.0041 4.08923 14 4.22208C13.9962 4.34487 13.9464 4.46655 13.8506 4.56027L8.07089 10.2073C7.67176 10.5976 7.02464 10.5976 6.6255 10.2073L4.14862 7.81911C4.05721 7.72973 4.00767 7.61492 4 7.49797C3.99093 7.35961 4.04047 7.21827 4.14862 7.11253L4.87132 6.40595Z" fill="#3454D1"/>
</svg>
