<svg width="20" height="16" viewBox="0 0 20 16" fill="none" xmlns="http://www.w3.org/2000/svg">
<path d="M8.70612 15.7061C8.31559 16.0966 7.68243 16.0966 7.2919 15.7061L0.295396 8.70959C0.10013 8.51433 0.00249874 8.2584 0.00250244 8.00247C0.00249883 7.74654 0.10013 7.49062 0.295396 7.29535L7.2939 0.296846C7.68443 -0.0936781 8.31759 -0.09368 8.70812 0.296845L9.41522 1.00395C9.80575 1.39448 9.80575 2.02764 9.41522 2.41816L5.33311 6.50028L18.9996 6.50027C19.5519 6.50027 19.9996 6.94799 19.9996 7.50027V8.50485C19.9996 9.05714 19.5519 9.50485 18.9996 9.50485H5.3333L9.41322 13.5848C9.80375 13.9753 9.80375 14.6085 9.41322 14.999L8.70612 15.7061Z" fill="#6F6F72"/>
</svg>
