<svg width="19" height="20" viewBox="0 0 19 20" fill="none" xmlns="http://www.w3.org/2000/svg">
    <path d="M16.7898 6.91244C16.5385 7.51904 16.1703 8.07022 15.706 8.5345L9.12091 15.1202C8.5583 15.6828 7.79536 15.9992 6.99971 15.9992C6.20407 15.9992 5.441 15.6832 4.87839 15.1206C4.31579 14.558 3.99972 13.7949 3.99972 12.9992C3.99972 12.2036 4.31577 11.4403 4.87838 10.8777L10.1817 5.57442C10.3769 5.37916 10.6935 5.37916 10.8888 5.57442L11.5959 6.28153C11.7912 6.47679 11.7912 6.79338 11.5959 6.98864L6.29259 12.2919C5.90207 12.6825 5.90208 13.3158 6.29261 13.7064C6.68313 14.0969 7.31618 14.0965 7.7067 13.706L14.2917 7.12034C15.4633 5.94877 15.4633 4.04928 14.2917 2.8777C13.1202 1.70613 11.2207 1.70613 10.0491 2.8777L3.46398 9.46342C1.51136 11.416 1.51185 14.5825 3.46447 16.5351C5.41709 18.4877 8.58291 18.4877 10.5355 16.5351L16.442 10.6292C16.6372 10.4339 16.9538 10.4339 17.1491 10.6292L17.8562 11.3363C18.0515 11.5316 18.0515 11.8481 17.8562 12.0434L11.95 17.9496C10.6372 19.2623 8.85649 19.9996 7 19.9996C5.14348 19.9996 3.36301 19.2621 2.05025 17.9493C0.737498 16.6365 0 14.8561 0 12.9996C-4.21468e-08 11.143 0.73701 9.36196 2.04976 8.04921L8.63487 1.46349C9.09917 0.999197 9.65036 0.6309 10.257 0.379626C10.8636 0.128352 11.5138 -0.000976478 12.1704 -0.000976562C12.827 -0.000976562 13.4772 0.128353 14.0838 0.379626C14.6905 0.630899 15.2416 0.999196 15.7059 1.46349C16.1702 1.92778 16.5385 2.47898 16.7898 3.08561C17.0411 3.69223 17.1704 4.34241 17.1704 4.99902C17.1704 5.65563 17.0411 6.30581 16.7898 6.91244Z"
          fill="#C4C2C4"/>
</svg>
