<svg width="18" height="18" viewBox="0 0 18 18" fill="none" xmlns="http://www.w3.org/2000/svg">
    <path d="M17.707 17.0001C18.0976 16.6096 18.0976 15.9764 17.707 15.5859L11.1213 9.00015L17.7072 2.41424C18.0977 2.02372 18.0977 1.39055 17.7072 1.00003L17.0003 0.293121C16.6098 -0.0974032 15.9766 -0.0974033 15.5861 0.293121L9.00016 6.87903L2.41426 0.293076C2.02373 -0.097448 1.39057 -0.097448 1.00005 0.293076L0.293138 0.999984C-0.0973868 1.39051 -0.0973871 2.02367 0.293137 2.4142L6.87905 9.00015L0.293501 15.5857C-0.0970228 15.9762 -0.0970225 16.6094 0.293502 16.9999L1.00041 17.7068C1.39093 18.0974 2.0241 18.0974 2.41462 17.7068L9.00016 11.1213L15.5859 17.707C15.9764 18.0975 16.6096 18.0975 17.0001 17.707L17.707 17.0001Z"
          fill="#121417"/>
</svg>
