<svg width="22" height="28" viewBox="0 0 22 28" fill="none" xmlns="http://www.w3.org/2000/svg">
<path d="M0.728537 12.2754C0.207838 11.7547 0.207838 10.9105 0.728537 10.3898L10.0572 1.06112C10.3176 0.800763 10.6588 0.670588 11 0.670593C11.3413 0.670588 11.6825 0.800763 11.9429 1.06112L21.2742 10.3925C21.7949 10.9132 21.7949 11.7574 21.2742 12.2781L20.3314 13.2209C19.8107 13.7416 18.9665 13.7416 18.4458 13.2209L13.003 7.77807V26C13.003 26.7364 12.406 27.3334 11.6696 27.3334H10.3302C9.59382 27.3334 8.99687 26.7364 8.99687 26V7.77832L3.55696 13.2182C3.03626 13.7389 2.19205 13.7389 1.67135 13.2182L0.728537 12.2754Z" fill="#F6F4F5"/>
</svg>
